<svg xmlns="http://www.w3.org/2000/svg" xmlns:xlink="http://www.w3.org/1999/xlink" version="1.1" id="Layer_1" x="0px" y="0px" viewBox="0 0 140 140" style="enable-background:new 0 0 140 140;" xml:space="preserve">
    <style type="text/css">
        .st0{fill:#005596;}
        .st1{fill:#30A079;}
        .st2{fill:#FFD24F;}
        .st3{clip-path:url(#SVGID_2_);fill:url(#SVGID_3_);}
        .st4{clip-path:url(#SVGID_2_);fill:url(#SVGID_4_);}
        .st5{clip-path:url(#SVGID_2_);fill:url(#SVGID_5_);}
        .st6{clip-path:url(#SVGID_2_);fill:url(#SVGID_6_);}
        .st7{clip-path:url(#SVGID_2_);fill:url(#SVGID_7_);}
        .st8{clip-path:url(#SVGID_2_);fill:url(#SVGID_8_);}
        .st9{clip-path:url(#SVGID_2_);fill:url(#SVGID_9_);}
        .st10{fill:#008752;}
    </style>
    
    <g>
        
    </g>
    <g>
        <g>
            <g>
                <g>
                    <defs>
                        <path id="SVGID_1_" d="M122.4,52.1c12.9,25.7,2.5,57-23.2,69.9c-25.7,12.9-57,2.5-69.9-23.2c-12.9-25.7-2.5-57,23.2-69.9       C78.2,15.9,109.5,26.3,122.4,52.1z"/>
                    </defs>
                    <clipPath id="SVGID_2_">
                        <use xlink:href="#SVGID_1_" style="overflow:visible;"/>
                    </clipPath>
                    <radialGradient id="SVGID_3_" cx="76.1024" cy="75.1289" r="60.2503" gradientUnits="userSpaceOnUse">
                        <stop offset="0.5031" style="stop-color:#FFFFFF"/>
                        <stop offset="0.7853" style="stop-color:#FFD24F"/>
                        <stop offset="0.8311" style="stop-color:#FFCA47"/>
                        <stop offset="0.9114" style="stop-color:#FCB433"/>
                        <stop offset="1" style="stop-color:#F8971D"/>
                    </radialGradient>
                    <polygon class="st3" points="35.6,119.1 75.8,75.4 20.2,93.3     "/>
                    
                        <radialGradient id="SVGID_4_" cx="-425.1963" cy="234.6583" r="60.2515" gradientTransform="matrix(0.8097 0.5868 -0.5868 0.8097 558.1916 134.854)" gradientUnits="userSpaceOnUse">
                        <stop offset="0.5031" style="stop-color:#FFFFFF"/>
                        <stop offset="0.7853" style="stop-color:#FFD24F"/>
                        <stop offset="0.8311" style="stop-color:#FFCA47"/>
                        <stop offset="0.9114" style="stop-color:#FCB433"/>
                        <stop offset="1" style="stop-color:#F8971D"/>
                    </radialGradient>
                    <polygon class="st4" points="17.6,87.2 75.8,75.4 20.3,57.2     "/>
                    
                        <radialGradient id="SVGID_5_" cx="-738.0506" cy="657.8339" r="60.2506" gradientTransform="matrix(0.3113 0.9503 -0.9503 0.3113 931.0679 572.1823)" gradientUnits="userSpaceOnUse">
                        <stop offset="0.5031" style="stop-color:#FFFFFF"/>
                        <stop offset="0.7853" style="stop-color:#FFD24F"/>
                        <stop offset="0.8311" style="stop-color:#FFCA47"/>
                        <stop offset="0.9114" style="stop-color:#FCB433"/>
                        <stop offset="1" style="stop-color:#F8971D"/>
                    </radialGradient>
                    <polygon class="st5" points="21.8,50.8 75.8,75.4 41.5,28.1     "/>
                    
                        <radialGradient id="SVGID_6_" cx="-742.4087" cy="1184.1383" r="60.2537" gradientTransform="matrix(-0.3056 0.9521 -0.9521 -0.3056 976.5325 1144.4921)" gradientUnits="userSpaceOnUse">
                        <stop offset="0.5031" style="stop-color:#FFFFFF"/>
                        <stop offset="0.7853" style="stop-color:#FFD24F"/>
                        <stop offset="0.8311" style="stop-color:#FFCA47"/>
                        <stop offset="0.9114" style="stop-color:#FCB433"/>
                        <stop offset="1" style="stop-color:#F8971D"/>
                    </radialGradient>
                    <polygon class="st6" points="46.5,23.8 75.8,75.4 75.8,17     "/>
                    
                        <radialGradient id="SVGID_7_" cx="-437.7326" cy="1612.5068" r="60.2519" gradientTransform="matrix(-0.8062 0.5916 -0.5916 -0.8062 676.8075 1634.774)" gradientUnits="userSpaceOnUse">
                        <stop offset="0.5031" style="stop-color:#FFFFFF"/>
                        <stop offset="0.7853" style="stop-color:#FFD24F"/>
                        <stop offset="0.8311" style="stop-color:#FFCA47"/>
                        <stop offset="0.9114" style="stop-color:#FCB433"/>
                        <stop offset="1" style="stop-color:#F8971D"/>
                    </radialGradient>
                    <polygon class="st7" points="82.4,16.4 75.8,75.4 110.1,28.1     "/>
                    
                        <radialGradient id="SVGID_8_" cx="60.5257" cy="1780.2012" r="60.2523" gradientTransform="matrix(-1 5.900000e-03 -5.900000e-03 -1 146.5555 1855.5386)" gradientUnits="userSpaceOnUse">
                        <stop offset="0.5031" style="stop-color:#FFFFFF"/>
                        <stop offset="0.7853" style="stop-color:#FFD24F"/>
                        <stop offset="0.8311" style="stop-color:#FFCA47"/>
                        <stop offset="0.9114" style="stop-color:#FCB433"/>
                        <stop offset="1" style="stop-color:#F8971D"/>
                    </radialGradient>
                    <polygon class="st8" points="115.8,31.5 75.8,75.4 131.3,57.2     "/>
                    
                        <radialGradient id="SVGID_9_" cx="562.3217" cy="1624.5341" r="60.2481" gradientTransform="matrix(-0.8132 -0.582 0.582 -0.8132 -412.783 1723.8129)" gradientUnits="userSpaceOnUse">
                        <stop offset="0.5031" style="stop-color:#FFFFFF"/>
                        <stop offset="0.7853" style="stop-color:#FFD24F"/>
                        <stop offset="0.8311" style="stop-color:#FFCA47"/>
                        <stop offset="0.9114" style="stop-color:#FCB433"/>
                        <stop offset="1" style="stop-color:#F8971D"/>
                    </radialGradient>
                    <polygon class="st9" points="133.9,63.3 75.8,75.4 131.5,93.3     "/>
                </g>
                <path class="st10" d="M121.4,97.9c0,0,0.4-5-11.3-1.5c-9.9,2.9-13.7,7.6-25.4,10.9c-9.5,2.7-11.6,4.8-12.1,6.8     c-0.5,1.9,2.3,2.4,6,1.8c3.7-0.5,9.6-2.3,11.2-2.9c1.6-0.6,2.6-1.2,1.6-0.3c-1,0.9-2.8,4.3-11.2,5.4c-6.8,0.9-10.5,1.1-12.4,1     c-4-0.3-14.2-3-15.8-3.5c-1.7-0.5-3.8-1.1-4.9,0.7s0.8,4.2,5.6,6.2c5.8,2.5,12.2,3.5,12.8,3.7c0.6,0.2,5.6,1.7,12.5,1.6     c6.9-0.1,14.7-2.2,18.8-4.3c6.9-3.5,15.9-12,19.9-17.6C120.7,100.5,121.4,97.9,121.4,97.9z"/>
            </g>
        </g>
        <g>
            <g>
                <path class="st0" d="M89.4,50.6c-1,3.3-4.3,5.3-7.3,4.3c-3.1-0.9-4.8-4.3-3.8-7.6c1-3.3,4.3-5.3,7.3-4.3     C88.7,43.9,90.4,47.3,89.4,50.6z"/>
                <path class="st0" d="M107.6,40c-0.8-0.1-2.8,2.3-4.6,4.4c-1.8,2.1-8,8.4-11.6,10.4c-2.3,1.3-6.4,2.3-9.9,2.6     c-3.4,0.3-9.1,0-14.1,2.6c-3.8,1.9-7.4,5.7-9.5,8.7c-0.7,1-2.2,3.1-2.4,5.1c-0.2,1.8,1,1.9,4.1-1.3c3.7-3.8,7.1-5.4,10.6-6.1     c5.5-1.1,4.5,3.4,3.4,8.5C71,86.4,67,92.6,60.8,109.2c-1.3,3.6,1.1,6.5,4.3-0.6c3.5-7.7,8.7-16.6,12-19.8     c2.2-2.1,6.1-2.5,8.9-2.4c4.1,0.1,4.6,4,5.6,10.6c0.5,3.8,3.2,5.3,3.2,1.2c0-9.7,1.3-15.6-3.5-18.2c-2.3-1.2-5.7-1.8-4.8-5.3     c1.1-4.5,2.8-7.8,4.2-9.8c1.6-2.4,8.7-8.5,12.3-13.7C107.2,45.2,109.9,40.2,107.6,40z"/>
            </g>
        </g>
    </g>
    </svg>